<?xml version="1.0" standalone="no"?>
<!DOCTYPE svg PUBLIC "-//W3C//DTD SVG 20010904//EN"
 "http://www.w3.org/TR/2001/REC-SVG-20010904/DTD/svg10.dtd">
<svg version="1.0" xmlns="http://www.w3.org/2000/svg"
 width="395.000000pt" height="381.000000pt" viewBox="0 0 395.000000 381.000000"
 preserveAspectRatio="xMidYMid meet">

<g transform="translate(0.000000,381.000000) scale(0.100000,-0.100000)"
fill="#000000" stroke="none">
<path d="M1685 3365 c-514 -95 -943 -438 -1135 -909 -85 -209 -115 -378 -107
-625 7 -270 65 -477 195 -704 214 -371 580 -633 1012 -724 121 -26 459 -26
580 0 314 66 583 215 800 444 221 232 347 499 405 856 l6 37 -195 0 c-195 0
-196 0 -200 -22 -58 -286 -151 -464 -338 -644 -270 -262 -661 -368 -1027 -279
-219 54 -389 152 -547 316 -438 456 -409 1184 64 1603 154 136 329 222 555
270 l27 6 0 195 c0 150 -3 195 -12 194 -7 0 -44 -7 -83 -14z"/>
<path d="M1842 2599 c-428 -62 -711 -454 -626 -867 109 -529 725 -759 1156
-433 138 105 231 257 272 444 l6 27 -184 0 -184 0 -27 -55 c-34 -71 -100 -136
-173 -172 -50 -25 -68 -28 -152 -28 -82 0 -103 4 -152 27 -282 132 -288 523
-10 660 l67 33 740 5 c527 4 747 8 765 16 55 26 110 110 110 169 0 34 -26 94
-53 124 -12 13 -40 32 -62 42 -38 18 -79 19 -735 18 -382 -1 -723 -6 -758 -10z"/>
</g>
</svg>
