<?xml version="1.0" standalone="no"?>
<!DOCTYPE svg PUBLIC "-//W3C//DTD SVG 20010904//EN"
 "http://www.w3.org/TR/2001/REC-SVG-20010904/DTD/svg10.dtd">
<svg version="1.0" xmlns="http://www.w3.org/2000/svg"
 width="940.000000pt" height="383.000000pt" viewBox="0 0 940.000000 383.000000"
 preserveAspectRatio="xMidYMid meet">

<g transform="translate(0.000000,383.000000) scale(0.100000,-0.100000)"
fill="#000000" stroke="none">
<path d="M1690 3385 c-323 -59 -593 -206 -827 -448 -197 -205 -327 -451 -389
-737 -27 -120 -27 -467 -1 -590 117 -553 500 -978 1037 -1148 156 -49 287 -65
490 -59 192 6 291 23 445 77 232 82 424 207 595 387 221 232 347 499 405 856
l6 37 -195 0 c-195 0 -196 0 -200 -22 -56 -274 -136 -435 -305 -612 -154 -160
-324 -257 -551 -313 -91 -23 -126 -26 -255 -26 -133 1 -163 4 -266 31 -209 54
-359 141 -514 296 -115 116 -182 212 -238 341 -242 561 4 1205 558 1461 63 29
189 69 278 88 l27 6 0 195 c0 150 -3 195 -12 194 -7 0 -47 -7 -88 -14z"/>
<path d="M7832 3109 c-99 -17 -154 -57 -194 -144 l-23 -50 0 -615 c0 -563 2
-620 18 -673 23 -76 73 -130 145 -159 56 -23 63 -23 575 -26 l517 -3 0 186 0
186 -381 -2 c-379 -2 -381 -2 -402 20 -22 21 -22 27 -27 429 -3 224 -1 420 4
435 5 16 19 33 33 38 13 5 192 9 399 9 l374 0 0 190 0 190 -492 -1 c-271 -1
-517 -5 -546 -10z"/>
<path d="M5790 2270 l0 -840 220 0 220 0 0 199 0 200 433 3 c425 3 433 4 490
26 79 32 136 78 173 140 53 88 59 139 59 522 l0 345 -26 56 c-28 59 -84 121
-134 147 -79 40 -105 42 -782 42 l-653 0 0 -840z m1064 450 c22 -5 51 -20 65
-35 l26 -25 3 -204 3 -204 -25 -28 -24 -29 -331 -3 -331 -3 0 271 0 270 288 0
c158 0 305 -5 326 -10z"/>
<path d="M4450 3093 c-103 -17 -162 -60 -202 -148 l-23 -50 -3 -587 c-2 -494
0 -598 13 -660 20 -98 53 -145 130 -183 l60 -30 528 -3 527 -3 0 181 0 181
-374 -1 c-385 -2 -405 0 -425 39 -6 11 -11 186 -12 437 l-1 418 22 18 c20 17
52 18 406 18 l384 0 0 190 0 190 -502 -1 c-277 -1 -514 -4 -528 -6z"/>
<path d="M1885 2623 c-230 -28 -417 -136 -541 -310 -169 -236 -177 -562 -20
-808 231 -360 716 -445 1058 -186 138 105 231 257 272 444 l6 27 -184 0 -184
0 -27 -55 c-34 -71 -100 -136 -173 -172 -50 -25 -68 -28 -152 -28 -82 0 -103
4 -152 27 -282 132 -288 523 -10 660 l67 33 740 5 c527 4 747 8 765 16 55 26
110 110 110 169 0 34 -26 94 -53 124 -12 13 -40 32 -62 42 -38 18 -79 18 -735
17 -382 0 -708 -3 -725 -5z"/>
<path d="M5815 988 c-3 -8 -4 -61 -3 -119 3 -96 4 -104 23 -104 19 0 20 7 20
115 0 101 -2 115 -18 118 -9 2 -19 -3 -22 -10z"/>
<path d="M5550 970 c0 -13 7 -20 20 -20 13 0 20 7 20 20 0 13 -7 20 -20 20
-13 0 -20 -7 -20 -20z"/>
<path d="M6370 977 c-19 -9 -26 -22 -28 -50 -3 -34 0 -39 43 -64 33 -20 45
-33 43 -48 -3 -17 -10 -20 -50 -18 -34 1 -48 -3 -48 -12 0 -17 23 -25 69 -25
44 0 74 26 74 65 0 31 -17 51 -59 71 -56 27 -37 76 21 54 21 -8 25 -7 25 9 0
11 -9 21 -22 25 -32 8 -40 7 -68 -7z"/>
<path d="M6690 970 c0 -13 7 -20 20 -20 13 0 20 7 20 20 0 13 -7 20 -20 20
-13 0 -20 -7 -20 -20z"/>
<path d="M4210 870 l0 -110 44 0 c61 0 94 15 107 47 8 22 6 32 -10 54 -13 17
-17 30 -11 34 6 3 10 19 10 35 0 37 -23 50 -89 50 l-51 0 0 -110z m96 65 c8
-20 -13 -45 -37 -45 -14 0 -19 7 -19 30 0 25 4 30 25 30 14 0 28 -7 31 -15z
m11 -91 c9 -24 -10 -49 -38 -49 -20 0 -25 6 -27 33 -3 30 -1 32 28 32 19 0 33
-6 37 -16z"/>
<path d="M7280 940 c0 -11 -7 -20 -15 -20 -8 0 -15 -5 -15 -10 0 -6 7 -13 15
-16 10 -4 15 -21 15 -54 0 -27 3 -55 6 -64 8 -22 74 -22 74 -1 0 8 -9 15 -20
15 -17 0 -20 7 -20 50 0 43 3 50 20 50 11 0 20 7 20 15 0 8 -9 15 -20 15 -13
0 -20 7 -20 20 0 13 -7 20 -20 20 -13 0 -20 -7 -20 -20z"/>
<path d="M4635 921 c-3 -6 -17 -8 -31 -5 -24 6 -24 6 -24 -75 0 -74 2 -81 20
-81 17 0 20 7 20 53 0 56 12 77 43 77 12 0 17 6 15 17 -4 20 -33 29 -43 14z"/>
<path d="M4888 919 c-31 -17 -20 -29 24 -27 32 2 43 -1 45 -13 3 -11 -9 -18
-39 -25 -39 -8 -43 -12 -46 -43 -2 -20 2 -37 10 -42 19 -13 62 -11 76 3 9 9
12 9 12 0 0 -7 7 -12 15 -12 12 0 15 15 15 75 0 63 -3 76 -19 85 -25 13 -71
12 -93 -1z m72 -104 c0 -9 -7 -18 -15 -21 -23 -9 -45 3 -39 21 8 20 54 20 54
0z"/>
<path d="M5241 911 c-27 -27 -16 -59 26 -79 42 -20 37 -37 -11 -36 -29 1 -36
-2 -34 -15 5 -23 80 -27 102 -6 27 27 19 53 -24 80 -45 28 -44 50 1 40 22 -5
29 -3 29 8 0 31 -61 36 -89 8z"/>
<path d="M6968 919 c-11 -6 -18 -22 -18 -40 0 -24 7 -32 35 -46 19 -9 35 -23
35 -31 0 -10 -9 -13 -35 -10 -29 3 -35 1 -35 -14 0 -14 8 -18 39 -18 77 0 95
55 31 95 -45 29 -44 50 2 40 25 -6 29 -4 26 12 -4 21 -53 29 -80 12z"/>
<path d="M7593 915 c-46 -32 -37 -139 12 -151 39 -10 90 0 93 18 3 14 -3 15
-36 11 -34 -5 -42 -2 -51 16 -11 20 -10 21 44 21 54 0 55 0 55 30 0 59 -67 90
-117 55z m67 -30 c17 -21 9 -27 -31 -23 -31 3 -32 4 -15 21 21 21 30 21 46 2z"/>
<path d="M7990 920 c-8 -5 -25 -7 -37 -3 -22 5 -23 3 -23 -76 0 -74 2 -81 20
-81 18 0 20 7 20 60 0 49 3 61 20 70 32 17 40 4 40 -66 0 -57 2 -64 20 -64 18
0 20 7 20 60 0 47 4 61 18 69 29 16 42 -6 42 -71 0 -51 2 -58 20 -58 18 0 20
7 20 69 0 94 -31 125 -87 86 -18 -13 -22 -13 -33 0 -14 17 -38 19 -60 5z"/>
<path d="M8408 919 c-31 -17 -20 -29 24 -27 32 2 43 -1 46 -13 2 -12 -7 -18
-37 -23 -48 -7 -66 -32 -51 -70 8 -21 16 -26 43 -26 18 0 38 5 45 12 9 9 12 9
12 0 0 -7 7 -12 15 -12 22 0 21 132 -1 154 -17 18 -70 21 -96 5z m70 -106 c-4
-20 -35 -30 -50 -15 -15 15 0 32 28 32 19 0 25 -5 22 -17z"/>
<path d="M8758 919 c-11 -6 -18 -22 -18 -40 0 -24 7 -32 35 -46 19 -9 35 -23
35 -31 0 -10 -9 -13 -35 -10 -29 3 -35 1 -35 -14 0 -15 8 -18 43 -18 48 0 67
13 67 47 0 16 -11 30 -35 45 -41 23 -41 44 -1 41 21 -1 26 2 24 15 -4 20 -54
27 -80 11z"/>
<path d="M5550 840 c0 -73 2 -80 20 -80 18 0 20 7 20 80 0 73 -2 80 -20 80
-18 0 -20 -7 -20 -80z"/>
<path d="M6690 840 c0 -73 2 -80 20 -80 18 0 20 7 20 80 0 73 -2 80 -20 80
-18 0 -20 -7 -20 -80z"/>
</g>
</svg>
