<?xml version="1.0" standalone="no"?>
<!DOCTYPE svg PUBLIC "-//W3C//DTD SVG 20010904//EN"
 "http://www.w3.org/TR/2001/REC-SVG-20010904/DTD/svg10.dtd">
<svg version="1.0" xmlns="http://www.w3.org/2000/svg"
 width="20.000000pt" height="20.000000pt" viewBox="0 0 20.000000 20.000000"
 preserveAspectRatio="xMidYMid meet">

<g transform="translate(0.000000,20.000000) scale(0.100000,-0.100000)"
fill="#000000" stroke="none">
<path d="M32 167 c-33 -35 -30 -100 4 -132 36 -34 92 -34 128 0 14 13 26 31
26 40 0 22 -8 19 -37 -15 -45 -54 -123 -27 -123 44 0 32 24 66 48 66 7 0 12 5
12 10 0 18 -36 10 -58 -13z"/>
<path d="M70 130 c-24 -24 -24 -30 -7 -54 15 -20 68 -19 75 1 2 9 -5 11 -26 7
-34 -7 -50 9 -32 31 8 10 31 15 61 15 27 0 49 5 49 10 0 6 -22 10 -50 10 -37
0 -55 -5 -70 -20z"/>
</g>
</svg>
