<?xml version="1.0" standalone="no"?>
<!DOCTYPE svg PUBLIC "-//W3C//DTD SVG 20010904//EN"
 "http://www.w3.org/TR/2001/REC-SVG-20010904/DTD/svg10.dtd">
<svg version="1.0" xmlns="http://www.w3.org/2000/svg"
 width="150.000000pt" height="61.000000pt" viewBox="0 0 150.000000 61.000000"
 preserveAspectRatio="xMidYMid meet">

<g transform="translate(0.000000,61.000000) scale(0.100000,-0.100000)"
fill="#000000" stroke="none">
<path d="M226 525 c-46 -16 -101 -66 -127 -117 -59 -115 -10 -262 106 -318
138 -67 303 12 339 163 6 24 4 27 -21 27 -24 0 -32 -8 -51 -50 -56 -123 -203
-143 -296 -40 -82 91 -41 241 76 282 22 8 28 16 28 39 0 33 -1 33 -54 14z"/>
<path d="M687 483 c-4 -3 -7 -59 -7 -124 0 -97 3 -118 16 -123 9 -3 51 -6 95
-6 77 0 79 1 79 25 0 23 -4 24 -62 27 l-63 3 0 75 0 75 63 0 c61 -1 62 0 62
27 l0 28 -88 0 c-49 0 -92 -3 -95 -7z"/>
<path d="M930 360 l0 -130 30 0 c26 0 30 3 30 29 l0 29 80 3 c45 3 84 9 92 17
16 16 23 134 9 161 -11 20 -20 21 -126 21 l-115 0 0 -130z m178 33 l3 -43 -60
0 -61 0 0 38 c0 21 3 42 7 46 4 4 30 6 58 4 l50 -3 3 -42z"/>
<path d="M1227 483 c-13 -12 -8 -228 5 -241 7 -7 44 -12 95 -12 l83 0 0 30 c0
29 -1 29 -62 32 l-63 3 0 70 0 70 63 3 c58 3 62 4 62 27 0 25 -1 25 -88 25
-49 0 -92 -3 -95 -7z"/>
<path d="M263 405 c-83 -36 -88 -167 -7 -203 48 -23 93 -15 130 22 19 19 34
39 34 45 0 18 -49 12 -70 -9 -11 -11 -29 -20 -40 -20 -27 0 -60 35 -60 63 0
47 25 56 165 59 118 3 130 5 133 22 2 10 -2 22 -10 27 -22 14 -239 10 -275 -6z"/>
<path d="M1019 158 c-6 -21 -5 -38 1 -38 5 0 8 9 7 20 -1 17 -5 26 -8 18z"/>
<path d="M671 134 c0 -11 3 -14 6 -6 3 7 2 16 -1 19 -3 4 -6 -2 -5 -13z"/>
<path d="M731 134 c0 -11 3 -14 6 -6 3 7 2 16 -1 19 -3 4 -6 -2 -5 -13z"/>
<path d="M841 134 c0 -11 3 -14 6 -6 3 7 2 16 -1 19 -3 4 -6 -2 -5 -13z"/>
<path d="M1161 134 c0 -11 3 -14 6 -6 3 7 2 16 -1 19 -3 4 -6 -2 -5 -13z"/>
<path d="M1213 135 c0 -8 4 -12 9 -9 5 3 6 10 3 15 -9 13 -12 11 -12 -6z"/>
<path d="M1285 139 c-4 -6 -5 -12 -2 -15 2 -3 7 2 10 11 7 17 1 20 -8 4z"/>
<path d="M1346 135 c-3 -8 -1 -15 4 -15 6 0 10 7 10 15 0 8 -2 15 -4 15 -2 0
-6 -7 -10 -15z"/>
<path d="M1401 134 c0 -11 3 -14 6 -6 3 7 2 16 -1 19 -3 4 -6 -2 -5 -13z"/>
<path d="M785 130 c-3 -5 -1 -10 4 -10 6 0 11 5 11 10 0 6 -2 10 -4 10 -3 0
-8 -4 -11 -10z"/>
</g>
</svg>
