<svg xmlns="http://www.w3.org/2000/svg" width="52.502" height="51.897" viewBox="0 0 52.502 51.897">
  <g id="Grupo_321" data-name="Grupo 321" transform="translate(25.824 109.506)">
    <g id="Grupo_311" data-name="Grupo 311" transform="translate(-25.824 -109.506)">
      <g id="Grupo_125" data-name="Grupo 125" transform="translate(0 0)">
        <path id="Caminho_479" data-name="Caminho 479" d="M99.569,67.843c-.045.2-.085.408-.117.647-1.638,12.005-14.1,20.1-25.331,16.3C66.6,82.245,61.531,76.9,60.367,68.869c-1.142-7.879,1.874-14.362,8.339-19.056a15.94,15.94,0,0,1,8.682-3.495V40A26.267,26.267,0,0,0,53.982,66.177c-.011,11.745,8.874,22.792,20.243,25.167A26.339,26.339,0,0,0,103.486,76.63a22.972,22.972,0,0,0,2.3-8.663c0-.045,0-.083,0-.124Z" transform="translate(-53.982 -40.001)" fill="#008898"/>
      </g>
    </g>
    <g id="Grupo_312" data-name="Grupo 312" transform="translate(-12.456 -96.06)">
      <g id="Grupo_127" data-name="Grupo 127" transform="translate(0 0)">
        <path id="Caminho_480" data-name="Caminho 480" d="M252.126,203H227.492v.048l-.217,0c-4.455.107-9.009,3.9-10.567,8.6a12.1,12.1,0,0,0,3.3,12.889,12.9,12.9,0,0,0,17.165.62,11.222,11.222,0,0,0,3.879-7.767h-6.642a10.922,10.922,0,0,1-2.634,3.891,5.076,5.076,0,0,1-2.539,1.047,6.686,6.686,0,0,1-7.1-8.858,6.274,6.274,0,0,1,2.4-3.136,8.644,8.644,0,0,1,4.5-1.23h23.089a3.055,3.055,0,1,0,0-6.109Z" transform="translate(-216.048 -203.004)" fill="#008898"/>
      </g>
    </g>
  </g>
</svg>
