<svg width="325" height="112" viewBox="0 0 325 112" fill="none" xmlns="http://www.w3.org/2000/svg">
<path d="M189.481 59.9988H163.08C159.871 59.9988 158.266 57.998 158.267 53.9965V29.8303C158.216 28.6008 158.64 27.3989 159.451 26.4736C159.863 26.0344 160.366 25.6904 160.925 25.4653C161.484 25.2402 162.085 25.1394 162.686 25.1699H191.719L191.079 10.7177H158.267C151.375 10.7177 146.614 12.3235 143.986 15.5351C142.196 17.6938 141.302 20.9054 141.302 25.1699V57.7873C141.302 63.1057 143.091 67.2124 146.67 70.1072C149.969 72.7008 154.077 74.0436 158.27 73.8981H190.099L189.481 59.9988Z" fill="white"/>
<path d="M324.38 59.9987H290.255C287.045 59.9987 285.441 57.998 285.442 53.9965V29.8303C285.392 28.6008 285.815 27.3991 286.626 26.4736C287.038 26.0344 287.542 25.6904 288.101 25.4652C288.659 25.2401 289.261 25.1393 289.862 25.1699H323.803L323.163 10.7177H285.443C278.552 10.7177 273.791 12.3235 271.16 15.5351C269.371 17.6938 268.476 20.9054 268.476 25.1699V57.7873C268.476 63.1057 270.266 67.2123 273.845 70.1072C277.143 72.7005 281.251 74.0432 285.443 73.8981H325L324.38 59.9987Z" fill="white"/>
<path d="M261.248 44.1241C261.248 53.7599 255.856 58.5772 245.072 58.5763H217.692V73.9009H200.725V10.7177H245.071C255.855 10.7177 261.247 15.5351 261.247 25.1699L261.248 44.1241ZM244.284 39.861V31.0152C244.284 27.1193 242.548 25.1713 239.077 25.1713H217.694V45.705H239.077C242.548 45.705 244.284 43.757 244.284 39.861Z" fill="white"/>
<path d="M144.8 89.0701C145.567 88.928 146.346 88.8594 147.127 88.8651C148.086 88.7771 149.045 89.0316 149.835 89.5834C150.103 89.7856 150.317 90.05 150.46 90.3538C150.603 90.6575 150.669 90.9915 150.654 91.3268C150.638 91.8172 150.469 92.2901 150.17 92.6788C149.87 93.0675 149.457 93.3523 148.987 93.4931V93.5241C149.558 93.6411 150.071 93.9506 150.442 94.4011C150.812 94.8515 151.016 95.4155 151.02 95.9986C151.027 96.3686 150.956 96.7359 150.812 97.0768C150.668 97.4177 150.455 97.7247 150.185 97.9782C149.201 98.6963 147.987 99.0256 146.775 98.9029C146.114 98.9075 145.453 98.8683 144.797 98.7855L144.8 89.0701ZM146.071 93.1141H147.226C148.573 93.1141 149.363 92.4071 149.363 91.4583C149.363 90.3003 148.486 89.8479 147.196 89.8479C146.817 89.8373 146.438 89.8662 146.066 89.9341L146.071 93.1141ZM146.071 97.8467C146.425 97.8943 146.782 97.9137 147.139 97.9047C148.456 97.9047 149.672 97.4224 149.672 95.9844C149.672 94.6383 148.515 94.0798 147.13 94.0798H146.077L146.071 97.8467Z" fill="white"/>
<path d="M159.183 93.9329C159.183 93.0973 159.17 92.3776 159.125 91.7229H160.255L160.299 93.1143H160.358C160.478 92.6803 160.732 92.2956 161.085 92.016C161.437 91.7364 161.87 91.5763 162.319 91.5589C162.443 91.5574 162.566 91.5722 162.685 91.6027V92.8187C162.541 92.7876 162.393 92.7729 162.246 92.7749C161.806 92.793 161.388 92.9712 161.07 93.2761C160.752 93.581 160.556 93.9915 160.519 94.4306C160.484 94.6295 160.464 94.831 160.461 95.033V98.8125H159.19L159.183 93.9329Z" fill="white"/>
<path d="M174.315 98.8123L174.213 97.9187H174.169C173.917 98.2539 173.59 98.5244 173.213 98.7078C172.836 98.8912 172.421 98.9823 172.002 98.9735C171.723 98.9941 171.443 98.9565 171.18 98.8632C170.916 98.7698 170.675 98.6227 170.471 98.4311C170.268 98.2396 170.106 98.0078 169.996 97.7505C169.887 97.4931 169.832 97.2157 169.835 96.936C169.835 95.2236 171.358 94.2848 174.094 94.2989V94.1576C174.123 93.938 174.101 93.7147 174.031 93.5048C173.96 93.2948 173.843 93.1036 173.688 92.9456C173.533 92.7876 173.344 92.6669 173.136 92.5927C172.928 92.5185 172.705 92.4927 172.485 92.5173C171.833 92.5189 171.195 92.701 170.64 93.0433L170.346 92.195C171.048 91.771 171.854 91.5526 172.673 91.5644C174.84 91.5644 175.366 93.0448 175.366 94.4658V97.117C175.357 97.6849 175.396 98.2524 175.483 98.8137L174.315 98.8123ZM174.124 95.1926C172.718 95.1643 171.123 95.4132 171.123 96.7904C171.11 96.9541 171.133 97.1188 171.189 97.2731C171.245 97.4273 171.334 97.5676 171.45 97.6844C171.565 97.8011 171.705 97.8916 171.858 97.9496C172.012 98.0076 172.176 98.0318 172.34 98.0205C172.714 98.0303 173.081 97.9205 173.389 97.7072C173.696 97.4939 173.928 97.1882 174.05 96.8342C174.097 96.7018 174.121 96.5629 174.124 96.4227V95.1926Z" fill="white"/>
<path d="M183.765 97.4946C184.275 97.8126 184.86 97.9889 185.46 98.0051C186.397 98.0051 186.836 97.5357 186.836 96.9517C186.836 96.3366 186.47 95.9987 185.518 95.648C184.247 95.1927 183.645 94.4899 183.645 93.6387C183.657 93.3375 183.732 93.0421 183.864 92.7711C183.996 92.5002 184.183 92.2595 184.413 92.0641C184.642 91.8688 184.909 91.7231 185.198 91.6362C185.486 91.5492 185.79 91.5228 186.089 91.5588C186.698 91.5526 187.298 91.7042 187.831 91.9986L187.509 92.936C187.073 92.6668 186.571 92.5243 186.059 92.5245C185.298 92.5245 184.874 92.9643 184.874 93.4903C184.874 94.0771 185.298 94.3386 186.222 94.6921C187.451 95.1616 188.079 95.7766 188.079 96.8315C188.079 98.0758 187.113 98.9524 185.43 98.9524C184.736 98.9649 184.051 98.7978 183.44 98.4674L183.765 97.4946Z" fill="white"/>
<path d="M197.666 89.7292C197.666 89.941 197.582 90.1443 197.432 90.2941C197.282 90.4439 197.079 90.5281 196.867 90.5281C196.656 90.5281 196.453 90.4439 196.303 90.2941C196.154 90.1443 196.069 89.941 196.069 89.7292C196.067 89.6226 196.086 89.5165 196.125 89.4175C196.165 89.3185 196.224 89.2286 196.299 89.1532C196.375 89.0778 196.464 89.0186 196.563 88.979C196.662 88.9395 196.768 88.9205 196.875 88.9232C196.981 88.9195 197.086 88.938 197.185 88.9774C197.284 89.0168 197.373 89.0762 197.447 89.152C197.522 89.2278 197.58 89.3183 197.617 89.4176C197.655 89.517 197.671 89.6231 197.666 89.7292ZM196.232 98.8125V91.7228H197.519V98.8125H196.232Z" fill="white"/>
<path d="M206.152 88.4097H207.439V98.8165H206.152V88.4097Z" fill="white"/>
<path d="M225.571 97.2585C226.26 97.6727 227.048 97.8953 227.852 97.9032C229.155 97.9032 229.916 97.2146 229.916 96.2191C229.916 95.2944 229.391 94.7684 228.058 94.2552C226.446 93.6896 225.452 92.8482 225.452 91.4583C225.471 91.067 225.57 90.6838 225.743 90.3326C225.917 89.9814 226.161 89.6699 226.46 89.4176C226.76 89.1654 227.108 88.9778 227.484 88.8667C227.859 88.7555 228.253 88.7233 228.642 88.7718C229.399 88.7467 230.149 88.9136 230.825 89.2568L230.473 90.2961C229.897 89.9861 229.253 89.8247 228.599 89.8266C227.252 89.8266 226.739 90.6326 226.739 91.307C226.739 92.2289 227.341 92.6843 228.701 93.2117C230.371 93.8565 231.219 94.6624 231.219 96.1132C231.219 97.6374 230.088 98.9552 227.765 98.9552C226.885 98.967 226.017 98.7497 225.247 98.3246L225.571 97.2585Z" fill="white"/>
<path d="M240.844 89.7292C240.844 89.9407 240.76 90.1436 240.611 90.2931C240.462 90.4427 240.259 90.5266 240.048 90.5266C239.836 90.5266 239.634 90.4427 239.484 90.2931C239.335 90.1436 239.251 89.9407 239.251 89.7292C239.248 89.6227 239.267 89.5167 239.306 89.4177C239.345 89.3187 239.404 89.2287 239.48 89.1533C239.555 89.0779 239.645 89.0186 239.743 88.9791C239.842 88.9395 239.948 88.9205 240.055 88.9232C240.161 88.9193 240.267 88.9376 240.365 88.9769C240.464 89.0163 240.553 89.0758 240.627 89.1517C240.702 89.2275 240.759 89.318 240.797 89.4175C240.834 89.5169 240.85 89.6231 240.844 89.7292ZM239.41 98.8126V91.7229H240.697V98.8126H239.41Z" fill="white"/>
<path d="M249.154 97.4946C249.664 97.8126 250.249 97.9889 250.85 98.0051C251.787 98.0051 252.226 97.5357 252.226 96.9517C252.226 96.3366 251.86 95.9987 250.908 95.648C249.636 95.1927 249.034 94.4899 249.034 93.6387C249.047 93.3375 249.122 93.0421 249.254 92.7711C249.386 92.5002 249.573 92.2595 249.802 92.0641C250.032 91.8688 250.299 91.7231 250.588 91.6362C250.876 91.5492 251.179 91.5228 251.478 91.5588C252.088 91.5524 252.688 91.7039 253.222 91.9986L252.9 92.936C252.464 92.6668 251.962 92.5243 251.45 92.5245C250.689 92.5245 250.265 92.9643 250.265 93.4903C250.265 94.0771 250.689 94.3386 251.613 94.6921C252.843 95.1616 253.47 95.7766 253.47 96.8315C253.47 98.0758 252.504 98.9524 250.822 98.9524C250.127 98.9651 249.441 98.798 248.83 98.4674L249.154 97.4946Z" fill="white"/>
<path d="M263.174 89.6852V91.7228H265.019V92.7027H263.174V96.5204C263.174 97.3999 263.423 97.8976 264.14 97.8976C264.392 97.9007 264.643 97.8717 264.888 97.8113L264.946 98.7785C264.579 98.9067 264.192 98.9661 263.804 98.9538C263.547 98.9692 263.289 98.9288 263.049 98.8353C262.809 98.7418 262.592 98.5975 262.413 98.4123C262.021 97.8812 261.843 97.2219 261.915 96.5657V92.697H260.816V91.7171H261.915V90.0204L263.174 89.6852Z" fill="white"/>
<path d="M273.592 95.5023C273.564 95.83 273.607 96.16 273.718 96.4694C273.83 96.7788 274.007 97.0603 274.238 97.2943C274.469 97.5284 274.748 97.7096 275.056 97.8252C275.364 97.9408 275.693 97.9882 276.02 97.964C276.693 97.9848 277.363 97.8599 277.983 97.5978L278.203 98.5197C277.457 98.8303 276.653 98.9801 275.845 98.9594C275.372 98.9889 274.899 98.916 274.457 98.7455C274.015 98.575 273.615 98.3111 273.285 97.9717C272.954 97.6323 272.701 97.2255 272.541 96.7791C272.382 96.3327 272.321 95.8571 272.363 95.3849C272.311 94.912 272.357 94.4334 272.499 93.9794C272.641 93.5253 272.876 93.1057 273.188 92.7469C273.5 92.3882 273.883 92.0981 274.313 91.895C274.743 91.692 275.21 91.5803 275.686 91.5672C276.103 91.5752 276.515 91.6703 276.893 91.8465C277.272 92.0227 277.61 92.2761 277.885 92.5904C278.161 92.9048 278.367 93.2732 278.492 93.6721C278.617 94.071 278.658 94.4915 278.611 94.907C278.609 95.1084 278.594 95.3095 278.569 95.5093L273.592 95.5023ZM277.368 94.5775C277.405 94.3196 277.386 94.0569 277.313 93.8067C277.241 93.5565 277.116 93.3247 276.947 93.1266C276.778 92.9284 276.568 92.7684 276.333 92.6573C276.098 92.5462 275.841 92.4865 275.581 92.4821C275.05 92.5215 274.552 92.7583 274.186 93.146C273.82 93.5337 273.612 94.0443 273.603 94.5775H277.368Z" fill="white"/>
<path d="M286.702 93.6387C286.702 92.9077 286.687 92.3053 286.643 91.7213H287.773L287.831 92.8639H287.875C288.087 92.4608 288.408 92.1251 288.801 91.8948C289.194 91.6644 289.643 91.5486 290.098 91.5602C290.54 91.5554 290.972 91.6904 291.333 91.9458C291.693 92.2012 291.964 92.5641 292.106 92.9826H292.134C292.33 92.6224 292.599 92.3074 292.924 92.0579C293.372 91.7142 293.925 91.5382 294.489 91.5602C295.426 91.5602 296.817 92.1752 296.817 94.6369V98.8124H295.559V94.7982C295.559 93.4365 295.061 92.6164 294.02 92.6164C293.677 92.6313 293.347 92.7518 293.075 92.9613C292.803 93.1708 292.602 93.4592 292.5 93.7871C292.432 93.9954 292.398 94.2129 292.398 94.4319V98.8152H291.14V94.5733C291.14 93.4422 290.639 92.6249 289.66 92.6249C289.293 92.6456 288.942 92.7809 288.655 93.012C288.369 93.243 288.162 93.5581 288.064 93.913C287.992 94.1153 287.958 94.329 287.962 94.5436V98.8208H286.704L286.702 93.6387Z" fill="white"/>
<path d="M309.324 98.8123L309.222 97.9187H309.178C308.927 98.2538 308.599 98.5242 308.222 98.7076C307.845 98.891 307.43 98.9822 307.011 98.9735C306.733 98.9941 306.453 98.9565 306.189 98.8632C305.926 98.7698 305.684 98.6227 305.481 98.4311C305.277 98.2396 305.115 98.0078 305.006 97.7505C304.896 97.4931 304.841 97.2157 304.844 96.936C304.844 95.2236 306.367 94.2848 309.104 94.2989V94.1576C309.132 93.938 309.11 93.7147 309.04 93.5048C308.97 93.2948 308.853 93.1036 308.698 92.9456C308.543 92.7876 308.354 92.6669 308.145 92.5927C307.937 92.5185 307.714 92.4927 307.495 92.5173C306.843 92.5189 306.204 92.701 305.649 93.0433L305.357 92.195C306.058 91.771 306.864 91.5526 307.684 91.5644C309.851 91.5644 310.376 93.0448 310.376 94.4658V97.117C310.368 97.6849 310.407 98.2524 310.494 98.8137L309.324 98.8123ZM309.133 95.1926C307.728 95.1643 306.131 95.4132 306.131 96.7904C306.118 96.9541 306.141 97.1188 306.197 97.2731C306.253 97.4273 306.342 97.5676 306.458 97.6844C306.573 97.8011 306.712 97.8916 306.866 97.9496C307.02 98.0076 307.184 98.0318 307.348 98.0205C307.722 98.0306 308.09 97.921 308.398 97.7077C308.705 97.4943 308.937 97.1884 309.06 96.8342C309.106 96.7018 309.13 96.5629 309.133 96.4227V95.1926Z" fill="white"/>
<path d="M318.775 97.4946C319.285 97.8126 319.87 97.9888 320.471 98.0051C321.407 98.0051 321.847 97.5356 321.847 96.9517C321.847 96.3366 321.481 95.9987 320.529 95.648C319.257 95.1927 318.655 94.4899 318.655 93.6387C318.668 93.3375 318.743 93.0421 318.875 92.7711C319.007 92.5002 319.194 92.2595 319.423 92.0641C319.653 91.8688 319.92 91.7231 320.209 91.6362C320.497 91.5492 320.8 91.5228 321.099 91.5588C321.708 91.5526 322.308 91.7042 322.841 91.9986L322.519 92.936C322.084 92.6668 321.582 92.5243 321.07 92.5245C320.308 92.5245 319.885 92.9643 319.885 93.4903C319.885 94.0771 320.308 94.3386 321.232 94.6921C322.461 95.1616 323.09 95.7766 323.09 96.8315C323.09 98.0758 322.125 98.9524 320.441 98.9524C319.747 98.9649 319.061 98.7978 318.451 98.4674L318.775 97.4946Z" fill="white"/>
<path d="M97.7869 59.7727C97.6908 60.1969 97.6046 60.6493 97.5354 61.1612C94.0149 86.9336 67.2831 104.313 43.1945 96.1499C27.0738 90.6877 16.1929 79.2176 13.6952 61.9742C11.247 45.0604 17.7173 31.1427 31.5819 21.0681C37.1127 17.0496 43.1945 13.8456 50.2045 13.5656V0C36.3831 1.51546 23.6098 8.09272 14.3417 18.4665C5.07367 28.8402 -0.0344017 42.2777 0.00017439 56.1939C-0.0238421 81.4078 19.0354 105.117 43.4192 110.22C55.9071 112.82 68.9065 111.113 80.3021 105.378C91.6977 99.6429 100.819 90.2169 106.181 78.6336C109.028 72.8187 110.702 66.4996 111.109 60.0371C111.109 59.941 111.109 59.8589 111.109 59.7713L97.7869 59.7727Z" fill="#008898"/>
<path d="M106.059 28.8619H53.2224V28.9651C53.067 28.9651 52.9116 28.9651 52.7562 28.9651C43.2004 29.1942 33.4328 37.3387 30.0903 47.433C28.4385 52.2315 28.2271 57.4092 29.4825 62.3266C30.7378 67.2439 33.4048 71.6856 37.1539 75.1029C42.0581 79.8084 48.5201 82.5443 55.3093 82.7897C62.0985 83.035 68.7408 80.7727 73.9712 76.4335C76.3933 74.348 78.3764 71.8008 79.8048 68.9403C81.2332 66.0799 82.0783 62.9634 82.2908 59.7727H68.049C66.7934 62.9347 64.8651 65.7852 62.3981 68.1264C60.8237 69.3624 58.9393 70.1403 56.952 70.3746C54.5332 70.662 52.0811 70.3281 49.8269 69.4044C47.5727 68.4807 45.5908 66.9976 44.0678 65.0949C42.5449 63.1922 41.5313 60.9327 41.1225 58.5293C40.7137 56.126 40.9231 53.658 41.7312 51.3582C42.6801 48.6166 44.4882 46.255 46.8863 44.6248C49.8001 42.8762 53.1379 41.9625 56.5352 41.9835H106.06C107.798 41.9835 109.464 41.2926 110.693 40.0627C111.922 38.8329 112.612 37.1648 112.612 35.4255C112.612 33.6863 111.922 32.0182 110.693 30.7884C109.464 29.5585 107.798 28.8676 106.06 28.8676L106.059 28.8619Z" fill="#008898"/>
</svg>
